# xmcd
#
# Track frame offsets:
# 300
# 19821
# 36190
# 53440
# 69207
# 82233
# 99024
# 120121
# 133003
# 149483
# 168280
# 185654
# 197405
# 212316
# 228531
# 242039
# 254400
# 272029
# 286286
# 303924
# 332764
#
# Disc length: 4795 seconds
#
#
# Revision: 0
# Processed by: cddbd v1.5PL3 Copyright (c) Steve Scherf et al.
# Submitted via: FreeRIP 2.52 
#
DISCID=2112b715
DTITLE=Kenny Rogers - Het Beste Van
DYEAR=2003
DGENRE=
TTITLE0=Coward Of The County
TTITLE1=Lucille
TTITLE2=We've Got Tonight (Duet With Sheena Easton)
TTITLE3=The Gambler
TTITLE4=Ruby Don't Take Your Love To Town
TTITLE5=Desperado
TTITLE6=Through The Years
TTITLE7=You Are So Beautiful
TTITLE8=Don't Fall In Love With A Dreamer (Duet With Kim Carnes)
TTITLE9=She Believes In Me
TTITLE10=Lady
TTITLE11=Blaze of Glory
TTITLE12=Just Dropped In
TTITLE13=Love Will Turn You Around
TTITLE14=What Are We Doin' In Love
TTITLE15=Reuben James
TTITLE16=Something's Burning
TTITLE17=Daytime Friends
TTITLE18=Make No Mistake She's Mine
TTITLE19=All My Life
TTITLE20=Data (player)
EXTD=
EXTT0=
EXTT1=
EXTT2=
EXTT3=
EXTT4=
EXTT5=
EXTT6=
EXTT7=
EXTT8=
EXTT9=
EXTT10=
EXTT11=
EXTT12=
EXTT13=
EXTT14=
EXTT15=
EXTT16=
EXTT17=
EXTT18=
EXTT19=
EXTT20=
PLAYORDER=
